<?xml version="1.0" encoding="UTF-8" standalone="no"?>
<!-- Created with Inkscape (http://www.inkscape.org/) -->

<svg
   xmlns:dc="http://purl.org/dc/elements/1.1/"
   xmlns:cc="http://creativecommons.org/ns#"
   xmlns:rdf="http://www.w3.org/1999/02/22-rdf-syntax-ns#"
   xmlns:svg="http://www.w3.org/2000/svg"
   xmlns="http://www.w3.org/2000/svg"
   xmlns:sodipodi="http://sodipodi.sourceforge.net/DTD/sodipodi-0.dtd"
   xmlns:inkscape="http://www.inkscape.org/namespaces/inkscape"
   id="svg3023"
   version="1.1"
   inkscape:version="0.48.4 r9939"
   width="538.2"
   height="160.175"
   xml:space="preserve"
   sodipodi:docname="devacademy vectorial.eps"><metadata
     id="metadata3029"><rdf:RDF><cc:Work
         rdf:about=""><dc:format>image/svg+xml</dc:format><dc:type
           rdf:resource="http://purl.org/dc/dcmitype/StillImage" /><dc:title></dc:title></cc:Work></rdf:RDF></metadata><defs
     id="defs3027"><clipPath
       clipPathUnits="userSpaceOnUse"
       id="clipPath3039"><path
         d="m 0,0 4305.61,0 0,1281 L 0,1281 0,0 z"
         id="path3041" /></clipPath></defs><sodipodi:namedview
     pagecolor="#ffffff"
     bordercolor="#666666"
     borderopacity="1"
     objecttolerance="10"
     gridtolerance="10"
     guidetolerance="10"
     inkscape:pageopacity="0"
     inkscape:pageshadow="2"
     inkscape:window-width="1366"
     inkscape:window-height="744"
     id="namedview3025"
     showgrid="false"
     inkscape:zoom="2.3337049"
     inkscape:cx="269.10001"
     inkscape:cy="80.087502"
     inkscape:window-x="0"
     inkscape:window-y="24"
     inkscape:window-maximized="1"
     inkscape:current-layer="g3031" /><g
     id="g3031"
     inkscape:groupmode="layer"
     inkscape:label="ink_ext_XXXXXX"
     transform="matrix(1.25,0,0,-1.25,0,160.175)"><g
       id="g3033"
       transform="scale(0.1,0.1)"><g
         id="g3035"><g
           id="g3037"
           clip-path="url(#clipPath3039)"><path
             d="m 1855.82,786.492 c 0,0 -112.23,-51.726 -142.04,16.66 0,0 -17.54,31.571 -15.78,85.93 1.75,54.359 16.65,86.801 16.65,86.801 0,0 9.65,30.687 57.87,30.687 48.23,0 83.3,-7.011 83.3,-7.011 l 0,-213.067 z m 1.47,491.318 0,-202.26 c -104.06,18.7 -154.33,0 -154.33,0 0,0 -91.28,-15.49 -91.18,-168.355 0.09,-135.625 37.99,-174.183 37.99,-174.183 0,0 28.06,-45.731 97.62,-45.594 49.15,0.098 109.9,25.719 109.9,25.719 l 0,-14.035 86.5,0 0,578.708 -86.5,0"
             style="fill:#3b393d;fill-opacity:1;fill-rule:nonzero;stroke:none"
             id="path3043" /><path
             d="m 2083.79,949.582 c 0,0 8.48,59.028 78.91,59.028 73.67,0 73.66,-64.29 73.66,-64.29 l 0,-26.304 -154.39,0 1.82,31.566 z m 231.77,-96.164 c 0,0 18.71,52.613 0,137.953 0,0 -18.7,94.699 -147.3,95.859 0,0 -109.02,15.79 -147.6,-81.54 0,0 -39.46,-59.616 -17.24,-207.213 15.36,-102.059 108.72,-105.215 108.72,-105.215 0,0 94.7,-15.2 195.23,12.855 l 1.17,63.133 c 0,0 -174.07,-17.789 -200.74,6.375 0,0 -30,16.664 -27.5,77.793 l 235.26,0"
             style="fill:#3b393d;fill-opacity:1;fill-rule:nonzero;stroke:none"
             id="path3045" /><path
             d="m 2323.88,1076.72 91.04,0 74.83,-307.466 22.21,0 73.66,307.466 90.01,0 -99.37,-375.275 -153.14,0 -99.24,375.275"
             style="fill:#3b393d;fill-opacity:1;fill-rule:nonzero;stroke:none"
             id="path3047" /><path
             d="m 1847.05,272.691 c 0,0 -117.49,-41.211 -157.82,-15.781 0,0 -27.18,17.531 -25.43,60.496 1.76,42.965 26.31,60.5 41.21,64.012 0,0 70.15,11.394 142.04,13.148 l 0,-121.875 z m 61.1,-7.043 0.57,225.368 c 0,0 4.67,91.187 -73.65,108.718 0,0 -52.61,19.875 -206.93,-8.179 l 0,-54.95 c 0,0 77.86,9.047 149.17,12.559 71.31,3.508 71.79,-56.976 71.79,-56.976 l 0,-45.594 c 0,0 -87.68,-3.52 -141.46,-12.867 -53.77,-9.352 -92.36,-38.582 -100.54,-84.172 0,0 -5.85,-24.551 0,-72.485 0,0 16.37,-84.16 109.89,-83 93.53,1.16 136.78,29.231 136.78,29.231 0,0 41.47,-36 101.66,-29.242 l 0,55.562 c 0,0 -34.89,-4.152 -47.28,16.027"
             style="fill:#505256;fill-opacity:1;fill-rule:nonzero;stroke:none"
             id="path3049" /><path
             d="m 2507.29,272.691 c 0,0 -117.5,-41.211 -157.83,-15.781 0,0 -27.18,17.531 -25.43,60.496 1.76,42.965 26.3,60.5 41.21,64.012 0,0 70.15,11.394 142.05,13.148 l 0,-121.875 z m 61.09,-7.043 0.58,225.368 c 0,0 4.66,91.187 -73.66,108.718 0,0 -52.6,19.875 -206.92,-8.179 l 0,-54.95 c 0,0 77.86,9.047 149.17,12.559 71.31,3.508 71.79,-56.976 71.79,-56.976 l 0,-45.594 c 0,0 -87.69,-3.52 -141.47,-12.867 -53.78,-9.352 -92.35,-38.582 -100.54,-84.172 0,0 -5.85,-24.551 0,-72.485 0,0 16.38,-84.16 109.9,-83 93.52,1.16 136.77,29.231 136.77,29.231 0,0 41.48,-36 101.66,-29.242 l 0,55.562 c 0,0 -34.9,-4.152 -47.28,16.027"
             style="fill:#505256;fill-opacity:1;fill-rule:nonzero;stroke:none"
             id="path3051" /><path
             d="m 2238.11,598.863 0,-54.367 c 0,0 -48.23,7.891 -97.33,7.016 -49.1,-0.875 -76.28,-16.66 -86.8,-31.567 -10.52,-14.902 -27.18,-41.207 -27.18,-113.105 0,0 -3.51,-113.106 37.7,-137.66 0,0 26.3,-19.289 78.91,-18.41 0,0 48.23,0 94.7,7.89 l 0,-56.121 c 0,0 -75.68,-9.008 -106.23,-9.32 0,0 -100.7,-8.207 -139.28,65.441 0,0 -23.69,35.949 -23.67,146.43 0.02,97.328 16.66,135.023 49.98,167.469 0,0 44.71,33.824 112.23,34.007 0,0 63.13,1.063 106.97,-7.703"
             style="fill:#505256;fill-opacity:1;fill-rule:nonzero;stroke:none"
             id="path3053" /><path
             d="m 2882.56,279.43 c 0,0 -49.11,-30.391 -107.56,-29.219 0,0 -83.01,-18.711 -87.68,121.574 0,0 -8.18,109.899 22.21,141.461 0,0 15.2,39.754 85.34,38.578 0,0 61.97,0 87.69,-8.183 l 0,-264.211 z m 0,467.629 1.17,-151.981 c -28.06,5.844 -85.35,11.488 -85.35,11.488 -58.45,2.129 -98.19,-20.839 -98.19,-20.839 -86.52,-49.102 -74.83,-185.946 -74.83,-185.946 1.17,-121.652 39.75,-163.601 39.75,-163.601 31.56,-32.731 51.43,-42.09 101.71,-43.239 50.27,-1.152 115.74,30.379 115.74,30.379 l 0,-21.05 61.95,0 0,544.789 -61.95,0"
             style="fill:#505256;fill-opacity:1;fill-rule:nonzero;stroke:none"
             id="path3055" /><path
             d="m 3071.94,488.848 c 21.05,64.449 94.95,62.988 94.95,62.988 63.38,4.676 87.43,-47.93 87.43,-47.93 19.87,-43.254 11.7,-78.332 11.7,-78.332 l -199.92,0 c -1.17,47.938 5.84,63.274 5.84,63.274 z M 3323.3,376.473 c 4.97,16.984 5.55,75.965 5.55,75.965 -5.27,77.156 -56.99,125.378 -56.99,125.378 -69.27,47.352 -156.08,21.047 -156.08,21.047 -88.55,-17.539 -105.21,-121.004 -105.21,-121.004 -15.78,-71.898 0,-161.332 0,-161.332 14.03,-105.218 96.44,-123.629 162.2,-123.617 65.77,0.02 138.54,14.02 138.54,14.02 l -0.88,51.73 c -54.36,-7.89 -127.13,-9.64 -127.13,-9.64 -71.02,0 -87.97,24.57 -87.97,24.57 -32.73,22.211 -29.36,102.883 -29.36,102.883 l 257.33,0"
             style="fill:#505256;fill-opacity:1;fill-rule:nonzero;stroke:none"
             id="path3057" /><path
             d="m 3444.58,576.938 0,21.925 -62.25,0 0,-395.441 62.25,0 0,311.266 c 0,0 33.32,38.578 101.72,35.949 68.39,-2.629 78.91,-35.071 80.66,-88.555 l 0,-258.66 62.25,0 0,231.476 c 0,0 -2.63,70.145 -2.63,79.79 0,0 14.04,33.32 102.59,35.074 0,0 72.77,7.89 77.16,-79.778 0,0 2.63,-79.804 3.5,-266.562 l 57,0 0,255.152 c 0,0 5.26,102.582 -58.75,132.395 0,0 -91.19,40.336 -209.55,-17.535 0,0 -21.93,33.48 -100.83,31.211 -78.92,-2.278 -113.12,-27.707 -113.12,-27.707"
             style="fill:#505256;fill-opacity:1;fill-rule:nonzero;stroke:none"
             id="path3059" /><path
             d="m 3961.89,598.863 60.5,0 97.33,-326.172 c 0,0 3.51,-15.781 11.4,-15.781 0,0 8.77,-4.39 14.91,18.41 l 98.2,323.543 61.38,0 -109.6,-366.504 -60.06,-227.96838 -60.94,0 48.22,177.98838 c 0,0 4.39,14.031 0.87,21.043 0,0 -24.54,-7.891 -40.33,6.137 0,0 -12.28,13.152 -20.17,39.461 l -101.71,349.843"
             style="fill:#505256;fill-opacity:1;fill-rule:nonzero;stroke:none"
             id="path3061" /><path
             d="M 225.551,898.863 0,1281.45 l 516.238,0 233.559,-382.587 -524.246,0"
             style="fill:#4473bb;fill-opacity:1;fill-rule:nonzero;stroke:none"
             id="path3063" /><path
             d="M 225.551,898.863 0,516.285 l 516.238,0 233.559,382.578 -524.246,0"
             style="fill:#234478;fill-opacity:1;fill-rule:nonzero;stroke:none"
             id="path3065" /><path
             d="M 898.766,225.559 516.188,0 l 0,516.238 382.578,233.559 0,-524.238"
             style="fill:#234478;fill-opacity:1;fill-rule:nonzero;stroke:none"
             id="path3067" /><path
             d="M 898.766,225.559 1281.36,0 l 0,516.238 -382.594,233.559 0,-524.238"
             style="fill:#16243a;fill-opacity:1;fill-rule:nonzero;stroke:none"
             id="path3069" /></g></g></g></g></svg>